<svg viewBox="0 0 40 40" xmlns="http://www.w3.org/2000/svg">
  <!-- Hardtack crackers -->
  <rect x="8" y="16" width="16" height="18" rx="2" fill="#d97706"/>
  <rect x="9" y="17" width="14" height="16" rx="1" fill="#fde68a"/>
  <!-- Hardtack docking holes -->
  <circle cx="12" cy="21" r="1" fill="#b45309"/>
  <circle cx="16" cy="21" r="1" fill="#b45309"/>
  <circle cx="20" cy="21" r="1" fill="#b45309"/>
  <circle cx="12" cy="25" r="1" fill="#b45309"/>
  <circle cx="16" cy="25" r="1" fill="#b45309"/>
  <circle cx="20" cy="25" r="1" fill="#b45309"/>
  <circle cx="12" cy="29" r="1" fill="#b45309"/>
  <circle cx="16" cy="29" r="1" fill="#b45309"/>
  <circle cx="20" cy="29" r="1" fill="#b45309"/>
  <!-- Cured dried meat strip behind -->
  <path d="M18,10 Q28,6 32,18 Q30,28 22,26 Z" fill="#881337"/>
  <path d="M19,12 Q27,8 30,18" fill="none" stroke="#be123c" stroke-width="1.5"/>
  <!-- Wax paper wrap band -->
  <rect x="14" y="22" width="18" height="6" rx="1" fill="#fef08a" fill-opacity="0.8"/>
  <line x1="14" y1="25" x2="32" y2="25" stroke="#ca8a04" stroke-width="1"/>
</svg>
